<?xml version="1.0" encoding="iso-8859-1"?>
<!-- Generator: Adobe Illustrator 17.0.0, SVG Export Plug-In . SVG Version: 6.00 Build 0)  -->
<!DOCTYPE svg PUBLIC "-//W3C//DTD SVG 1.1//EN" "http://www.w3.org/Graphics/SVG/1.1/DTD/svg11.dtd">
<svg version="1.1" id="Layer_1" xmlns="http://www.w3.org/2000/svg" xmlns:xlink="http://www.w3.org/1999/xlink" x="0px" y="0px"
	 width="524px" height="388px" viewBox="0 0 524 388" style="enable-background:new 0 0 524 388;" xml:space="preserve">
	 <g>
		<path d="M75.403,210.686 c-4.483-4.372-7.266-10.477-7.266-17.233c0-6.136,2.296-11.735,6.077-15.987c4.963-4.409,8.089-10.839,8.089-17.998 c0-13.295-10.781-24.073-24.081-24.073c-7.162,0-13.594,3.125-18.005,8.086c-4.253,3.779-9.854,6.074-15.992,6.074 c-13.3,0-24.081-10.778-24.081-24.073s10.781-24.073,24.081-24.073c6.138,0,11.74,2.296,15.993,6.075 c0.631,0.709,1.303,1.381,2.012,2.012l0.174,0.153c4.231,3.688,9.764,5.921,15.819,5.921c13.3,0,24.081-10.778,24.081-24.073 c0-7.16-3.127-13.589-8.089-17.999c-3.78-4.252-6.077-9.851-6.077-15.987c0-13.295,10.781-24.073,24.081-24.073 c13.3,0,24.081,10.778,24.081,24.073c0,6.136-2.296,11.735-6.077,15.987c-4.963,4.41-8.089,10.839-8.089,17.999 c0,13.295,10.781,24.073,24.081,24.073s24.081-10.778,24.081-24.073c0-7.16-3.126-13.589-8.089-17.998 c-3.78-4.252-6.077-9.851-6.077-15.987c0-13.295,10.781-24.073,24.081-24.073c13.3,0,24.081,10.778,24.081,24.073 c0,6.136-2.296,11.735-6.077,15.987c-0.904,0.803-1.748,1.674-2.522,2.604c4.551-5.028,11.119-8.304,18.452-8.304 c6.138,0,11.739,2.295,15.992,6.074c4.411,4.961,10.843,8.086,18.005,8.086c6.436,0,12.283-2.524,16.603-6.636l1.558-1.628 c3.687-4.229,5.921-9.759,5.921-15.81c0-6.051-2.233-11.58-5.921-15.81l-0.156-0.177c-0.631-0.709-1.303-1.381-2.013-2.012 c-3.78-4.252-6.076-9.851-6.076-15.987c0-13.295,10.781-24.073,24.081-24.073s24.081,10.778,24.081,24.073 c0,6.136-2.296,11.735-6.076,15.987c-4.963,4.409-8.089,10.839-8.089,17.999c0,6.219,2.359,11.887,6.231,16.158l1.248,1.279 c4.32,4.112,10.167,6.636,16.603,6.636c7.162,0,13.594-3.125,18.005-8.086c4.253-3.779,9.854-6.074,15.992-6.074 c7.704,0,14.563,3.616,18.971,9.243c-0.818-1.368-1.879-2.511-3.041-3.543c-3.78-4.252-6.077-9.851-6.077-15.987 c0-13.295,10.781-24.073,24.081-24.073s24.081,10.778,24.081,24.073c0,6.136-2.296,11.735-6.077,15.987 c-4.962,4.41-8.089,10.839-8.089,17.999c0,13.295,10.781,24.073,24.082,24.073c13.3,0,24.081-10.778,24.081-24.073 c0-7.16-3.126-13.589-8.089-17.998c-3.78-4.252-6.077-9.851-6.077-15.987c0-13.295,10.781-24.073,24.081-24.073 s24.081,10.778,24.081,24.073c0,6.136-2.296,11.735-6.077,15.987c-4.963,4.41-8.089,10.839-8.089,17.999 c0,6.434,2.525,12.278,6.638,16.597l1.628,1.558c4.231,3.686,9.762,5.918,15.815,5.918c6.053,0,11.584-2.232,15.815-5.918 l0.177-0.156c0.71-0.631,1.382-1.303,2.013-2.012c4.253-3.779,9.855-6.074,15.992-6.074c13.3,0,24.081,10.778,24.081,24.073 s-10.781,24.073-24.081,24.073c-6.138,0-11.739-2.295-15.992-6.074c-4.411-4.961-10.843-8.086-18.005-8.086 c-6.221,0-11.891,2.358-16.164,6.228l-1.279,1.248c-4.113,4.319-6.638,10.163-6.638,16.597c0,7.16,3.127,13.589,8.089,17.999 c3.78,4.251,6.076,9.851,6.076,15.987c0,7.993-3.897,15.076-9.895,19.455c0,0,2.808-1.887,3.882-3.094 c4.253-3.779,9.854-6.074,15.992-6.074c13.3,0,24.081,10.778,24.081,24.073c0,13.295-10.781,24.073-24.081,24.073 c-6.138,0-11.739-2.295-15.992-6.074c-4.411-4.961-10.843-8.086-18.005-8.086c-13.3,0-24.081,10.778-24.081,24.073 s10.781,24.073,24.081,24.073c7.162,0,13.594-3.125,18.005-8.086c4.253-3.779,9.854-6.074,15.992-6.074 c13.3,0,24.081,10.778,24.081,24.073c0,13.295-10.781,24.073-24.081,24.073c-6.138,0-11.74-2.295-15.993-6.074 c-4.411-4.961-10.843-8.086-18.005-8.086c-13.3,0-24.081,10.778-24.081,24.073c0,7.16,3.126,13.589,8.089,17.999 c3.78,4.251,6.076,9.851,6.076,15.986c0,13.295-10.781,24.073-24.081,24.073s-24.081-10.778-24.081-24.073 c0-6.136,2.296-11.735,6.077-15.987c0.71-0.63,1.381-1.302,2.012-2.012l0.153-0.174c3.689-4.23,5.923-9.76,5.923-15.813 c0-13.295-10.781-24.073-24.081-24.073c-7.162,0-13.594,3.125-18.005,8.086c-4.253,3.779-9.854,6.074-15.992,6.074 c-5.598,0-10.75-1.909-14.839-5.112c3.089,4.048,4.923,9.103,4.923,14.587c0,13.295-10.781,24.073-24.081,24.073 s-24.081-10.778-24.081-24.073c0-6.136,2.296-11.735,6.076-15.987c4.963-4.41,8.089-10.839,8.089-17.999 c0-13.295-10.781-24.073-24.081-24.073s-24.081,10.778-24.081,24.073c0,7.16,3.126,13.589,8.089,17.999 c3.78,4.251,6.077,9.851,6.077,15.987c0,13.295-10.781,24.073-24.081,24.073c-13.3,0-24.081-10.778-24.081-24.073 c0-5.484,1.834-10.54,4.923-14.587c-4.089,3.203-9.241,5.112-14.839,5.112c-6.138,0-11.74-2.295-15.993-6.074 c-4.411-4.961-10.843-8.086-18.005-8.086c-13.3,0-24.081,10.778-24.081,24.073c0,7.16,3.127,13.589,8.089,17.999 c3.78,4.251,6.076,9.851,6.076,15.986c0,13.295-10.781,24.073-24.081,24.073s-24.081-10.778-24.081-24.073 c0-6.136,2.296-11.735,6.077-15.987c0.71-0.63,1.382-1.302,2.012-2.012l0.153-0.174c3.689-4.23,5.924-9.76,5.924-15.813 c0-13.295-10.781-24.073-24.081-24.073c-7.162,0-13.594,3.125-18.005,8.086c-4.253,3.779-9.854,6.074-15.992,6.074 c-13.3,0-24.081-10.778-24.081-24.073c0-13.295,10.781-24.073,24.081-24.073c6.138,0,11.739,2.296,15.992,6.075 c4.411,4.961,10.843,8.086,18.005,8.086c13.3,0,24.081-10.778,24.081-24.073s-10.781-24.073-24.081-24.073 c-7.162,0-13.594,3.125-18.005,8.086c-4.253,3.779-9.855,6.075-15.993,6.075c-13.3,0-24.081-10.778-24.081-24.073 c0-13.295,10.781-24.073,24.081-24.073c6.138,0,11.739,2.295,15.992,6.074C74.504,210.212,75.403,210.686,75.403,210.686z"/>
	</g>
</svg>
