<?xml version="1.0" encoding="iso-8859-1"?>
<!-- Generator: Adobe Illustrator 17.0.0, SVG Export Plug-In . SVG Version: 6.00 Build 0)  -->
<!DOCTYPE svg PUBLIC "-//W3C//DTD SVG 1.1//EN" "http://www.w3.org/Graphics/SVG/1.1/DTD/svg11.dtd">
<svg version="1.1" id="Layer_1" xmlns="http://www.w3.org/2000/svg" xmlns:xlink="http://www.w3.org/1999/xlink" x="0px" y="0px"
	 width="184px" height="252px" viewBox="0 0 184 252" style="enable-background:new 0 0 184 252;" xml:space="preserve">
	 <g>
<path d="M76.281,42.003l-0.156-0.177L76.281,42.003z M144.156,141.859c4.255-3.782,9.86-6.08,16.001-6.08c13.307,0,24.094,10.787,24.094,24.094c0,13.307-10.787,24.094-24.094,24.094 c-6.141,0-11.746-2.298-16.001-6.08c-4.413-4.965-10.849-8.093-18.015-8.093c-13.307,0-24.094,10.787-24.094,24.094 c0,7.166,3.128,13.602,8.094,18.015c3.782,4.255,6.08,9.86,6.08,16.001c0,13.307-10.787,24.094-24.094,24.094 s-24.094-10.787-24.094-24.094c0-6.141,2.298-11.746,6.08-16.001c0.71-0.631,1.382-1.303,2.013-2.013l0.153-0.174 c3.691-4.234,5.927-9.769,5.927-15.827c0-13.307-10.787-24.094-24.094-24.094c-7.166,0-13.601,3.128-18.015,8.093 c-4.255,3.782-9.86,6.08-16.001,6.08C10.787,183.969,0,173.181,0,159.874c0-13.307,10.787-24.094,24.094-24.094 c6.141,0,11.746,2.298,16.001,6.08c4.413,4.965,10.849,8.093,18.015,8.093c13.307,0,24.094-10.787,24.094-24.094 s-10.787-24.095-24.094-24.095c-7.166,0-13.601,3.128-18.014,8.093c-4.255,3.782-9.86,6.08-16.001,6.08 C10.787,115.937,0,105.15,0,91.843s10.787-24.094,24.094-24.094c6.141,0,11.746,2.298,16.001,6.08 c4.414,4.965,10.849,8.093,18.015,8.093c6.44,0,12.289-2.526,16.612-6.642l1.559-1.629c3.689-4.233,5.924-9.767,5.924-15.824 c0-6.056-2.234-11.59-5.924-15.824l-0.156-0.177c-0.631-0.71-1.304-1.382-2.014-2.014c-3.782-4.255-6.08-9.86-6.08-16.001 c0-13.307,10.787-24.094,24.094-24.094s24.094,10.787,24.094,24.094c0,6.141-2.297,11.746-6.08,16.001 c-4.965,4.413-8.094,10.849-8.094,18.015c0,6.224,2.36,11.897,6.234,16.173l1.249,1.28c4.322,4.115,10.172,6.642,16.612,6.642 c7.166,0,13.601-3.128,18.015-8.094c4.255-3.782,9.86-6.08,16.001-6.08c13.307,0,24.094,10.787,24.094,24.094 s-10.787,24.094-24.094,24.094c-6.141,0-11.746-2.297-16.001-6.08c-4.414-4.965-10.849-8.094-18.015-8.094 c-13.307,0-24.094,10.787-24.094,24.095s10.787,24.094,24.094,24.094C133.308,149.953,139.743,146.825,144.156,141.859z"/>
</g>
</svg>
